<?xml version="1.0" encoding="UTF-8"?>
<!DOCTYPE svg PUBLIC "-//W3C//DTD SVG 1.1//EN" "http://www.w3.org/Graphics/SVG/1.1/DTD/svg11.dtd">
<!-- Creator: CorelDRAW 2018 (64 Bit Versão de avaliação) -->
<svg xmlns="http://www.w3.org/2000/svg" xml:space="preserve" width="316px" height="146px" version="1.1" style="shape-rendering:geometricPrecision; text-rendering:geometricPrecision; image-rendering:optimizeQuality; fill-rule:evenodd; clip-rule:evenodd"
viewBox="0 0 278.43 128.77"
 xmlns:xlink="http://www.w3.org/1999/xlink">
 <defs>
  <style type="text/css">
   <![CDATA[
    .fil1 {fill:#00AFEF}
    .fil2 {fill:#201E1E}
    .fil0 {fill:#00AFEF;fill-rule:nonzero}
   ]]>
  </style>
 </defs>
 <g id="Camada_x0020_1">
  <metadata id="CorelCorpID_0Corel-Layer"/>
  <g id="_2688059143472">
   <path class="fil0" d="M140.51 97.3l0.07 0.2c0.1,5.41 -1.55,9.69 -4.94,12.87 -3.39,3.18 -8.1,4.77 -14.13,4.77 -6.05,0 -10.96,-1.94 -14.73,-5.83 -3.77,-3.89 -5.66,-8.88 -5.66,-15l0 -9.96c0,-6.09 1.85,-11.08 5.52,-14.99 3.68,-3.91 8.46,-5.86 14.35,-5.86 6.21,0 11.06,1.59 14.55,4.78 3.5,3.19 5.21,7.53 5.11,13.03l-0.07 0.2 -9.79 0c0,-3.31 -0.79,-5.84 -2.38,-7.6 -1.59,-1.76 -4.06,-2.64 -7.42,-2.64 -3.01,0 -5.4,1.22 -7.17,3.66 -1.78,2.45 -2.66,5.56 -2.66,9.35l0 10.01c0,3.84 0.93,6.97 2.79,9.42 1.87,2.43 4.38,3.66 7.56,3.66 3.14,0 5.47,-0.85 6.98,-2.53 1.51,-1.7 2.26,-4.21 2.26,-7.54l9.76 0z"/>
   <path id="1" class="fil0" d="M166.55 85.79l-3.68 -0.11c-1.5,0 -2.73,0.31 -3.7,0.93 -0.96,0.62 -1.69,1.5 -2.2,2.63l0 25.19 -10.04 0 0 -37.3 9.35 0 0.44 5.52c0.87,-1.95 2.02,-3.48 3.41,-4.57 1.39,-1.1 2.99,-1.65 4.8,-1.65 0.51,0 0.98,0.03 1.4,0.11 0.42,0.09 0.86,0.18 1.3,0.3l-1.08 8.95z"/>
   <path id="2" class="fil0" d="M188.18 115.14c-5.38,0 -9.68,-1.72 -12.89,-5.17 -3.23,-3.45 -4.83,-7.83 -4.83,-13.14l0 -1.38c0,-5.53 1.52,-10.1 4.57,-13.68 3.05,-3.59 7.14,-5.37 12.26,-5.34 5.04,0 8.95,1.52 11.72,4.54 2.79,3.04 4.18,7.14 4.18,12.3l0 5.48 -22.28 0 -0.07 0.21c0.18,2.45 1.01,4.46 2.47,6.04 1.46,1.58 3.44,2.37 5.94,2.37 2.24,0 4.09,-0.23 5.56,-0.67 1.47,-0.45 3.09,-1.16 4.83,-2.12l2.73 6.23c-1.52,1.24 -3.51,2.28 -5.97,3.09 -2.46,0.83 -5.2,1.24 -8.22,1.24zm-0.89 -30.94c-1.86,0 -3.33,0.7 -4.42,2.13 -1.07,1.42 -1.74,3.29 -2,5.6l0.11 0.18 12.35 0 0 -0.9c0,-2.13 -0.51,-3.83 -1.5,-5.11 -1,-1.27 -2.52,-1.9 -4.54,-1.9z"/>
   <path id="3" class="fil0" d="M225.57 115.14c-5.38,0 -9.67,-1.72 -12.89,-5.17 -3.22,-3.45 -4.82,-7.83 -4.82,-13.14l0 -1.38c0,-5.53 1.51,-10.1 4.56,-13.68 3.05,-3.59 7.14,-5.37 12.26,-5.34 5.04,0 8.95,1.52 11.73,4.54 2.79,3.04 4.18,7.14 4.18,12.3l0 5.48 -22.29 0 -0.07 0.21c0.19,2.45 1.01,4.46 2.47,6.04 1.46,1.58 3.44,2.37 5.95,2.37 2.23,0 4.08,-0.23 5.55,-0.67 1.47,-0.45 3.09,-1.16 4.83,-2.12l2.73 6.23c-1.52,1.24 -3.51,2.28 -5.97,3.09 -2.46,0.83 -5.2,1.24 -8.22,1.24zm-0.89 -30.94c-1.86,0 -3.33,0.7 -4.42,2.13 -1.07,1.42 -1.74,3.29 -2,5.6l0.11 0.18 12.35 0 0 -0.9c0,-2.13 -0.51,-3.83 -1.5,-5.11 -1,-1.27 -2.52,-1.9 -4.54,-1.9z"/>
   <path id="4" class="fil0" d="M244.89 96.08c0,-5.89 1.28,-10.63 3.82,-14.24 2.54,-3.61 6.12,-5.41 10.75,-5.41 2.06,0 3.88,0.46 5.45,1.36 1.55,0.92 2.91,2.23 4.03,3.93l0.93 -4.59 8.56 0 0 51.64 -10.07 0 0 -17.84c-1.11,1.38 -2.4,2.43 -3.89,3.14 -1.48,0.71 -3.18,1.07 -5.08,1.07 -4.58,0 -8.14,-1.67 -10.68,-5.03 -2.54,-3.35 -3.82,-7.79 -3.82,-13.32l0 -0.71zm10.05 0.7c0,3.25 0.55,5.83 1.66,7.74 1.09,1.89 2.89,2.85 5.38,2.85 1.47,0 2.73,-0.27 3.79,-0.83 1.06,-0.55 1.92,-1.35 2.59,-2.41l0 -16.49c-0.67,-1.1 -1.53,-1.95 -2.58,-2.55 -1.05,-0.6 -2.3,-0.89 -3.74,-0.89 -2.46,0 -4.25,1.09 -5.4,3.29 -1.14,2.21 -1.7,5.07 -1.7,8.56l0 0.73z"/>
   <g>
    <path class="fil1" d="M59.28 37.2c-12.58,-7.55 -15.32,-19.68 -14.24,-37.2 3.1,9.96 12.29,16.22 30.24,25.64 9.22,4.59 14.13,20.33 10.03,38.18 -6.07,-13.68 -14.92,-22.24 -26.03,-26.62z"/>
    <path class="fil2" d="M50.12 64.83c-25.52,-4.65 -31.15,-20.82 -29.89,-40.22 8.79,10.78 19.45,15.66 42.48,20.35 17.49,4.29 22.65,24.64 24.2,43.29 -8.85,-11.73 -20.35,-20.42 -36.79,-23.42z"/>
    <path class="fil1" d="M41.72 98.84c25.29,1.3 40.93,11.99 53.68,24.07 0.05,-25.79 -12.71,-41.69 -39.84,-46.5 -24.87,-3.6 -39.12,-4.92 -55.56,-19.52 3.27,26.12 16.31,41.08 41.72,41.95z"/>
   </g>
  </g>
 </g>
</svg>
