<?xml version="1.0" encoding="UTF-8"?>
<!DOCTYPE svg PUBLIC "-//W3C//DTD SVG 1.1//EN" "http://www.w3.org/Graphics/SVG/1.1/DTD/svg11.dtd">
<!-- Creator: CorelDRAW 2018 (64 Bit Versão de avaliação) -->
<svg xmlns="http://www.w3.org/2000/svg" xml:space="preserve" width="112px" height="52px" version="1.1" style="shape-rendering:geometricPrecision; text-rendering:geometricPrecision; image-rendering:optimizeQuality; fill-rule:evenodd; clip-rule:evenodd"
viewBox="0 0 94.01 43.48"
 xmlns:xlink="http://www.w3.org/1999/xlink">
 <defs>
  <style type="text/css">
   <![CDATA[
    .fil2 {fill:#FEFEFE}
    .fil1 {fill:#00AFEF}
    .fil0 {fill:#FEFEFE;fill-rule:nonzero}
   ]]>
  </style>
 </defs>
 <g id="Camada_x0020_1">
  <metadata id="CorelCorpID_0Corel-Layer"/>
  <g id="_2688244499856">
   <path class="fil0" d="M47.44 32.85l0.03 0.07c0.03,1.83 -0.53,3.27 -1.67,4.35 -1.15,1.07 -2.74,1.61 -4.77,1.61 -2.05,0 -3.7,-0.66 -4.98,-1.97 -1.27,-1.31 -1.91,-3 -1.91,-5.07l0 -3.36c0,-2.05 0.63,-3.74 1.87,-5.06 1.24,-1.32 2.85,-1.98 4.84,-1.98 2.1,0 3.73,0.54 4.92,1.61 1.18,1.08 1.75,2.55 1.72,4.4l-0.02 0.07 -3.31 0c0,-1.11 -0.27,-1.97 -0.8,-2.57 -0.54,-0.59 -1.37,-0.89 -2.51,-0.89 -1.02,0 -1.82,0.42 -2.42,1.24 -0.6,0.83 -0.9,1.88 -0.9,3.16l0 3.38c0,1.29 0.32,2.35 0.95,3.18 0.63,0.82 1.47,1.23 2.55,1.23 1.06,0 1.85,-0.28 2.35,-0.85 0.51,-0.57 0.77,-1.42 0.77,-2.55l3.29 0z"/>
   <path id="1" class="fil0" d="M56.24 28.97l-1.25 -0.04c-0.5,0 -0.92,0.1 -1.25,0.31 -0.32,0.21 -0.57,0.51 -0.74,0.89l0 8.51 -3.39 0 0 -12.6 3.16 0 0.15 1.87c0.29,-0.66 0.68,-1.18 1.15,-1.55 0.46,-0.37 1.01,-0.55 1.62,-0.55 0.17,0 0.33,0.01 0.47,0.03 0.14,0.03 0.29,0.06 0.44,0.1l-0.36 3.03z"/>
   <path id="2" class="fil0" d="M63.54 38.88c-1.82,0 -3.27,-0.58 -4.35,-1.75 -1.09,-1.16 -1.63,-2.64 -1.63,-4.44l0 -0.46c0,-1.87 0.51,-3.41 1.54,-4.62 1.03,-1.21 2.41,-1.81 4.14,-1.8 1.7,0 3.02,0.51 3.96,1.53 0.94,1.03 1.41,2.41 1.41,4.15l0 1.85 -7.53 0 -0.02 0.07c0.06,0.83 0.34,1.51 0.83,2.04 0.5,0.54 1.16,0.8 2.01,0.8 0.76,0 1.38,-0.07 1.88,-0.22 0.49,-0.16 1.04,-0.39 1.63,-0.72l0.92 2.1c-0.51,0.42 -1.19,0.77 -2.02,1.05 -0.83,0.28 -1.75,0.42 -2.77,0.42zm-0.3 -10.45c-0.63,0 -1.13,0.24 -1.49,0.72 -0.37,0.48 -0.59,1.11 -0.68,1.89l0.04 0.06 4.17 0 0 -0.3c0,-0.72 -0.17,-1.3 -0.51,-1.73 -0.34,-0.43 -0.85,-0.64 -1.53,-0.64z"/>
   <path id="3" class="fil0" d="M76.16 38.88c-1.81,0 -3.26,-0.58 -4.35,-1.75 -1.09,-1.16 -1.63,-2.64 -1.63,-4.44l0 -0.46c0,-1.87 0.51,-3.41 1.54,-4.62 1.03,-1.21 2.41,-1.81 4.14,-1.8 1.7,0 3.02,0.51 3.96,1.53 0.94,1.03 1.41,2.41 1.41,4.15l0 1.85 -7.52 0 -0.03 0.07c0.07,0.83 0.35,1.51 0.84,2.04 0.49,0.54 1.16,0.8 2.01,0.8 0.75,0 1.38,-0.07 1.87,-0.22 0.5,-0.16 1.04,-0.39 1.63,-0.72l0.92 2.1c-0.51,0.42 -1.18,0.77 -2.01,1.05 -0.83,0.28 -1.76,0.42 -2.78,0.42zm-0.3 -10.45c-0.63,0 -1.12,0.24 -1.49,0.72 -0.36,0.48 -0.59,1.11 -0.67,1.89l0.03 0.06 4.17 0 0 -0.3c0,-0.72 -0.17,-1.3 -0.5,-1.73 -0.34,-0.43 -0.85,-0.64 -1.54,-0.64z"/>
   <path id="4" class="fil0" d="M82.69 32.44c0,-1.99 0.43,-3.59 1.29,-4.81 0.85,-1.22 2.06,-1.82 3.62,-1.82 0.7,0 1.32,0.15 1.85,0.46 0.52,0.31 0.98,0.75 1.35,1.32l0.32 -1.55 2.89 0 0 17.44 -3.4 0 0 -6.02c-0.37,0.46 -0.81,0.82 -1.31,1.05 -0.5,0.25 -1.07,0.37 -1.72,0.37 -1.55,0 -2.75,-0.57 -3.6,-1.7 -0.86,-1.13 -1.29,-2.63 -1.29,-4.5l0 -0.24zm3.39 0.24c0,1.1 0.19,1.97 0.56,2.61 0.37,0.64 0.98,0.96 1.82,0.96 0.49,0 0.92,-0.09 1.28,-0.28 0.35,-0.18 0.64,-0.45 0.87,-0.81l0 -5.57c-0.23,-0.37 -0.52,-0.66 -0.87,-0.86 -0.35,-0.2 -0.78,-0.3 -1.26,-0.3 -0.84,0 -1.44,0.37 -1.83,1.11 -0.38,0.75 -0.57,1.71 -0.57,2.89l0 0.25z"/>
   <g>
    <path class="fil1" d="M20.02 12.56c-4.25,-2.55 -5.18,-6.65 -4.81,-12.56 1.04,3.36 4.15,5.48 10.21,8.66 3.11,1.55 4.77,6.86 3.38,12.89 -2.05,-4.62 -5.03,-7.51 -8.78,-8.99z"/>
    <path class="fil2" d="M16.92 21.89c-8.61,-1.57 -10.51,-7.03 -10.09,-13.58 2.97,3.64 6.57,5.29 14.34,6.87 5.91,1.45 7.65,8.32 8.17,14.62 -2.98,-3.96 -6.87,-6.9 -12.42,-7.91z"/>
    <path class="fil1" d="M14.09 33.37c8.53,0.44 13.82,4.05 18.12,8.13 0.02,-8.71 -4.29,-14.08 -13.45,-15.7 -8.4,-1.22 -13.21,-1.66 -18.76,-6.59 1.1,8.82 5.51,13.87 14.09,14.16z"/>
   </g>
  </g>
 </g>
</svg>
