<?xml version="1.0" encoding="UTF-8"?>
<!DOCTYPE svg PUBLIC "-//W3C//DTD SVG 1.1//EN" "http://www.w3.org/Graphics/SVG/1.1/DTD/svg11.dtd">
<!-- Creator: CorelDRAW 2018 (64 Bit Versão de avaliação) -->
<svg xmlns="http://www.w3.org/2000/svg" xml:space="preserve" width="559px" height="258px" version="1.1" style="shape-rendering:geometricPrecision; text-rendering:geometricPrecision; image-rendering:optimizeQuality; fill-rule:evenodd; clip-rule:evenodd"
viewBox="0 0 469.21 217.01"
 xmlns:xlink="http://www.w3.org/1999/xlink">
 <defs>
  <style type="text/css">
   <![CDATA[
    .fil2 {fill:#FEFEFE}
    .fil1 {fill:#00AFEF}
    .fil0 {fill:#FEFEFE;fill-rule:nonzero}
   ]]>
  </style>
 </defs>
 <g id="Camada_x0020_1">
  <metadata id="CorelCorpID_0Corel-Layer"/>
  <g id="_2688247660096">
   <path class="fil0" d="M236.79 163.97l0.12 0.34c0.16,9.11 -2.62,16.33 -8.33,21.69 -5.72,5.35 -13.65,8.03 -23.81,8.03 -10.2,0 -18.47,-3.27 -24.82,-9.82 -6.35,-6.55 -9.54,-14.96 -9.54,-25.28l0 -16.78c0,-10.26 3.11,-18.67 9.3,-25.26 6.21,-6.59 14.27,-9.88 24.19,-9.88 10.45,0 18.63,2.68 24.52,8.06 5.89,5.37 8.77,12.69 8.61,21.96l-0.12 0.34 -16.51 0c0,-5.58 -1.33,-9.84 -4,-12.82 -2.68,-2.96 -6.85,-4.44 -12.5,-4.44 -5.08,0 -9.11,2.06 -12.09,6.17 -2.99,4.12 -4.48,9.36 -4.48,15.75l0 16.86c0,6.47 1.57,11.75 4.7,15.88 3.16,4.1 7.38,6.17 12.74,6.17 5.3,0 9.23,-1.43 11.76,-4.27 2.54,-2.86 3.81,-7.08 3.81,-12.7l16.45 0z"/>
   <path id="1" class="fil0" d="M280.68 144.57l-6.21 -0.18c-2.52,0 -4.6,0.52 -6.23,1.57 -1.63,1.05 -2.86,2.52 -3.71,4.42l0 42.46 -16.92 0 0 -62.85 15.75 0 0.75 9.3c1.47,-3.29 3.4,-5.87 5.74,-7.72 2.34,-1.84 5.04,-2.77 8.09,-2.77 0.85,0 1.65,0.05 2.36,0.19 0.72,0.14 1.45,0.3 2.19,0.5l-1.81 15.08z"/>
   <path id="2" class="fil0" d="M317.13 194.03c-9.07,0 -16.31,-2.9 -21.73,-8.71 -5.43,-5.81 -8.13,-13.19 -8.13,-22.14l0 -2.32c0,-9.33 2.56,-17.03 7.7,-23.06 5.13,-6.05 12.02,-9.04 20.65,-9 8.49,0 15.08,2.55 19.76,7.65 4.7,5.12 7.04,12.03 7.04,20.74l0 9.22 -37.55 0 -0.12 0.36c0.31,4.13 1.7,7.52 4.16,10.18 2.46,2.66 5.8,3.99 10.02,3.99 3.77,0 6.89,-0.38 9.37,-1.13 2.48,-0.76 5.2,-1.95 8.13,-3.58l4.6 10.5c-2.55,2.1 -5.91,3.85 -10.05,5.22 -4.15,1.39 -8.77,2.08 -13.85,2.08zm-1.51 -52.14c-3.14,0 -5.62,1.19 -7.44,3.59 -1.81,2.4 -2.94,5.56 -3.37,9.45l0.17 0.29 20.82 0 0 -1.5c0,-3.6 -0.86,-6.47 -2.52,-8.62 -1.69,-2.14 -4.25,-3.21 -7.66,-3.21z"/>
   <path id="3" class="fil0" d="M380.14 194.03c-9.07,0 -16.31,-2.9 -21.72,-8.71 -5.44,-5.81 -8.14,-13.19 -8.14,-22.14l0 -2.32c0,-9.33 2.56,-17.03 7.7,-23.06 5.14,-6.05 12.02,-9.04 20.65,-9 8.49,0 15.08,2.55 19.76,7.65 4.71,5.12 7.05,12.03 7.05,20.74l0 9.22 -37.56 0 -0.12 0.36c0.32,4.13 1.71,7.52 4.17,10.18 2.46,2.66 5.79,3.99 10.02,3.99 3.77,0 6.88,-0.38 9.36,-1.13 2.48,-0.76 5.2,-1.95 8.14,-3.58l4.6 10.5c-2.56,2.1 -5.91,3.85 -10.06,5.22 -4.15,1.39 -8.77,2.08 -13.85,2.08zm-1.51 -52.14c-3.13,0 -5.61,1.19 -7.44,3.59 -1.8,2.4 -2.93,5.56 -3.37,9.45l0.18 0.29 20.81 0 0 -1.5c0,-3.6 -0.85,-6.47 -2.52,-8.62 -1.68,-2.14 -4.24,-3.21 -7.66,-3.21z"/>
   <path id="4" class="fil0" d="M412.7 161.91c0,-9.92 2.14,-17.92 6.43,-23.99 4.28,-6.09 10.31,-9.12 18.11,-9.12 3.47,0 6.55,0.77 9.19,2.3 2.62,1.54 4.9,3.75 6.78,6.62l1.57 -7.73 14.43 0 0 87.02 -16.97 0 0 -30.06c-1.86,2.32 -4.05,4.09 -6.55,5.28 -2.5,1.21 -5.35,1.8 -8.57,1.8 -7.72,0 -13.71,-2.82 -17.99,-8.47 -4.29,-5.65 -6.43,-13.13 -6.43,-22.44l0 -1.21zm16.92 1.19c0,5.48 0.94,9.82 2.8,13.04 1.85,3.19 4.88,4.8 9.07,4.8 2.48,0 4.6,-0.46 6.39,-1.39 1.78,-0.93 3.23,-2.28 4.36,-4.07l0 -27.8c-1.13,-1.84 -2.58,-3.27 -4.34,-4.28 -1.77,-1.01 -3.87,-1.51 -6.31,-1.51 -4.15,0 -7.17,1.85 -9.09,5.56 -1.92,3.71 -2.88,8.53 -2.88,14.42l0 1.23z"/>
   <g>
    <path class="fil1" d="M99.9 62.7c-21.2,-12.74 -25.81,-33.18 -24,-62.7 5.22,16.78 20.71,27.33 50.97,43.21 15.52,7.73 23.8,34.25 16.9,64.33 -10.24,-23.05 -25.14,-37.48 -43.87,-44.84z"/>
    <path class="fil2" d="M84.46 109.26c-43.01,-7.84 -52.49,-35.09 -50.37,-67.79 14.82,18.17 32.78,26.39 71.59,34.29 29.47,7.24 38.17,41.53 40.78,72.96 -14.91,-19.77 -34.29,-34.41 -62,-39.46z"/>
    <path class="fil1" d="M70.31 166.57c42.61,2.18 68.97,20.2 90.46,40.56 0.09,-43.46 -21.42,-70.25 -67.14,-78.36 -41.91,-6.07 -65.93,-8.3 -93.63,-32.89 5.51,44 27.49,69.23 70.31,70.69z"/>
   </g>
  </g>
 </g>
</svg>
