<?xml version="1.0" encoding="UTF-8"?>
<!DOCTYPE svg PUBLIC "-//W3C//DTD SVG 1.1//EN" "http://www.w3.org/Graphics/SVG/1.1/DTD/svg11.dtd">
<!-- Creator: CorelDRAW 2018 (64 Bit Versão de avaliação) -->
<svg xmlns="http://www.w3.org/2000/svg" xml:space="preserve" width="40px" height="52px" version="1.1" style="shape-rendering:geometricPrecision; text-rendering:geometricPrecision; image-rendering:optimizeQuality; fill-rule:evenodd; clip-rule:evenodd"
viewBox="0 0 16.5 21.26"
 xmlns:xlink="http://www.w3.org/1999/xlink">
 <defs>
  <style type="text/css">
   <![CDATA[
    .fil0 {fill:#00AFEF}
    .fil1 {fill:#201E1E}
   ]]>
  </style>
 </defs>
 <g id="Camada_x0020_1">
  <metadata id="CorelCorpID_0Corel-Layer"/>
  <g id="_2243523657632">
   <path class="fil0" d="M10.25 6.44c-2.17,-1.31 -2.65,-3.41 -2.46,-6.44 0.54,1.72 2.13,2.8 5.23,4.44 1.6,0.79 2.45,3.51 1.74,6.6 -1.05,-2.37 -2.58,-3.85 -4.51,-4.6z"/>
   <path class="fil1" d="M8.67 11.21c-4.42,-0.8 -5.39,-3.6 -5.17,-6.95 1.52,1.86 3.36,2.71 7.35,3.52 3.02,0.74 3.92,4.26 4.18,7.48 -1.53,-2.02 -3.52,-3.53 -6.36,-4.05z"/>
   <path class="fil0" d="M7.22 17.1c4.37,0.22 7.08,2.07 9.28,4.16 0.01,-4.46 -2.2,-7.21 -6.89,-8.04 -4.3,-0.63 -6.77,-0.85 -9.61,-3.38 0.57,4.52 2.82,7.11 7.22,7.26z"/>
  </g>
 </g>
</svg>
