<?xml version="1.0" encoding="UTF-8"?>
<!DOCTYPE svg PUBLIC "-//W3C//DTD SVG 1.1//EN" "http://www.w3.org/Graphics/SVG/1.1/DTD/svg11.dtd">
<!-- Creator: CorelDRAW 2018 (64 Bit Versão de avaliação) -->
<svg xmlns="http://www.w3.org/2000/svg" xml:space="preserve" width="40px" height="52px" version="1.1" style="shape-rendering:geometricPrecision; text-rendering:geometricPrecision; image-rendering:optimizeQuality; fill-rule:evenodd; clip-rule:evenodd"
viewBox="0 0 16.41 21.15"
 xmlns:xlink="http://www.w3.org/1999/xlink">
 <defs>
  <style type="text/css">
   <![CDATA[
    .fil1 {fill:#FEFEFE}
    .fil0 {fill:#00AFEF}
   ]]>
  </style>
 </defs>
 <g id="Camada_x0020_1">
  <metadata id="CorelCorpID_0Corel-Layer"/>
  <g id="_2243523663328">
   <path class="fil0" d="M10.2 6.4c-2.17,-1.3 -2.64,-3.39 -2.45,-6.4 0.53,1.71 2.11,2.79 5.2,4.41 1.59,0.79 2.43,3.5 1.73,6.57 -1.05,-2.35 -2.57,-3.83 -4.48,-4.58z"/>
   <path class="fil1" d="M8.62 11.15c-4.39,-0.8 -5.36,-3.58 -5.14,-6.92 1.51,1.86 3.35,2.7 7.31,3.5 3.01,0.74 3.9,4.24 4.16,7.45 -1.52,-2.02 -3.5,-3.51 -6.33,-4.03z"/>
   <path class="fil0" d="M7.18 17.01c4.35,0.22 7.04,2.06 9.23,4.14 0.01,-4.44 -2.18,-7.18 -6.85,-8 -4.28,-0.62 -6.73,-0.85 -9.56,-3.36 0.56,4.49 2.81,7.07 7.18,7.22z"/>
  </g>
 </g>
</svg>
