<?xml version="1.0" encoding="UTF-8"?>
<!DOCTYPE svg PUBLIC "-//W3C//DTD SVG 1.1//EN" "http://www.w3.org/Graphics/SVG/1.1/DTD/svg11.dtd">
<!-- Creator: CorelDRAW 2018 (64 Bit Versão de avaliação) -->
<svg xmlns="http://www.w3.org/2000/svg" xml:space="preserve" width="179px" height="47px" version="1.1" style="shape-rendering:geometricPrecision; text-rendering:geometricPrecision; image-rendering:optimizeQuality; fill-rule:evenodd; clip-rule:evenodd"
viewBox="0 0 143.11 37.41"
 xmlns:xlink="http://www.w3.org/1999/xlink">
 <defs>
  <style type="text/css">
   <![CDATA[
    .fil2 {fill:#00AFEF}
    .fil3 {fill:#201E1E}
    .fil1 {fill:#00AFEF;fill-rule:nonzero}
    .fil0 {fill:#201E1E;fill-rule:nonzero}
   ]]>
  </style>
 </defs>
 <g id="Camada_x0020_1">
  <metadata id="CorelCorpID_0Corel-Layer"/>
  <g id="_1458672703856">
   <polygon class="fil0" points="33.63,18.65 37.35,29.41 37.4,29.41 41.15,18.65 44.98,18.65 44.98,33.24 42.05,33.24 42.05,28.89 42.34,22.45 42.27,22.44 38.36,33.24 36.4,33.24 32.52,22.48 32.45,22.49 32.73,28.89 32.73,33.24 29.81,33.24 29.81,18.65 "/>
   <path id="1" class="fil0" d="M53.84 33.24c-0.11,-0.24 -0.2,-0.5 -0.28,-0.78 -0.08,-0.27 -0.13,-0.55 -0.16,-0.84 -0.3,0.53 -0.7,0.96 -1.19,1.31 -0.49,0.34 -1.08,0.52 -1.76,0.52 -1.14,0 -2.01,-0.29 -2.62,-0.88 -0.62,-0.58 -0.93,-1.38 -0.93,-2.38 0,-1.07 0.41,-1.89 1.23,-2.47 0.82,-0.59 2.01,-0.88 3.58,-0.88l1.64 0 0 -0.86c0,-0.52 -0.14,-0.92 -0.42,-1.21 -0.27,-0.29 -0.67,-0.43 -1.21,-0.43 -0.47,0 -0.84,0.11 -1.09,0.34 -0.26,0.23 -0.39,0.55 -0.39,0.96l-2.83 -0.01 -0.01 -0.06c-0.04,-0.91 0.35,-1.7 1.19,-2.37 0.85,-0.67 1.95,-1 3.32,-1 1.3,0 2.35,0.33 3.16,0.99 0.81,0.66 1.21,1.6 1.21,2.81l0 4.48c0,0.51 0.04,0.99 0.12,1.43 0.07,0.45 0.19,0.89 0.36,1.33l-2.92 0zm-2.68 -1.95c0.52,0 0.97,-0.12 1.37,-0.38 0.4,-0.25 0.68,-0.54 0.82,-0.88l0 -1.53 -1.64 0c-0.62,0 -1.09,0.16 -1.41,0.47 -0.32,0.31 -0.48,0.68 -0.48,1.12 0,0.36 0.12,0.65 0.36,0.87 0.24,0.22 0.57,0.33 0.98,0.33z"/>
   <path id="2" class="fil0" d="M64.36 30.25c0,-0.32 -0.16,-0.59 -0.47,-0.82 -0.31,-0.24 -0.88,-0.44 -1.73,-0.62 -1.28,-0.27 -2.24,-0.65 -2.9,-1.16 -0.65,-0.51 -0.97,-1.21 -0.97,-2.09 0,-0.94 0.39,-1.73 1.17,-2.38 0.79,-0.65 1.84,-0.98 3.15,-0.98 1.39,0 2.49,0.33 3.31,0.97 0.82,0.65 1.21,1.47 1.18,2.46l-0.03 0.06 -2.82 0c0,-0.44 -0.14,-0.79 -0.42,-1.07 -0.27,-0.27 -0.68,-0.41 -1.22,-0.41 -0.47,0 -0.84,0.12 -1.11,0.35 -0.27,0.23 -0.41,0.52 -0.41,0.86 0,0.34 0.14,0.61 0.43,0.83 0.28,0.21 0.86,0.4 1.73,0.57 1.33,0.27 2.33,0.66 2.97,1.18 0.65,0.51 0.97,1.22 0.97,2.13 0,0.98 -0.41,1.78 -1.25,2.39 -0.83,0.62 -1.93,0.93 -3.31,0.93 -1.44,0 -2.58,-0.37 -3.42,-1.1 -0.83,-0.73 -1.23,-1.56 -1.19,-2.5l0.01 -0.06 2.68 0c0.02,0.58 0.21,1 0.57,1.26 0.36,0.26 0.84,0.39 1.42,0.39 0.54,0 0.95,-0.11 1.23,-0.32 0.29,-0.21 0.43,-0.5 0.43,-0.87z"/>
   <path id="3" class="fil0" d="M72.56 19.75l0 2.66 1.82 0 0 2.05 -1.82 0 0 5.52c0,0.42 0.08,0.72 0.26,0.9 0.17,0.18 0.4,0.27 0.7,0.27 0.15,0 0.29,-0.01 0.4,-0.02 0.1,-0.02 0.23,-0.05 0.38,-0.09l0.25 2.11c-0.29,0.1 -0.58,0.18 -0.86,0.22 -0.28,0.05 -0.59,0.08 -0.91,0.08 -1.01,0 -1.79,-0.28 -2.33,-0.83 -0.55,-0.56 -0.82,-1.43 -0.82,-2.64l0 -5.52 -1.58 0 0 -2.05 1.58 0 0 -2.66 2.93 0z"/>
   <path id="4" class="fil0" d="M81.04 33.45c-1.56,0 -2.81,-0.5 -3.74,-1.5 -0.94,-1 -1.4,-2.28 -1.4,-3.82l0 -0.4c0,-1.61 0.44,-2.93 1.32,-3.97 0.89,-1.05 2.08,-1.56 3.56,-1.56 1.47,0 2.6,0.44 3.41,1.32 0.81,0.89 1.21,2.08 1.21,3.58l0 1.59 -6.47 0 -0.02 0.06c0.05,0.71 0.29,1.3 0.72,1.75 0.42,0.46 1,0.69 1.72,0.69 0.65,0 1.19,-0.06 1.62,-0.19 0.43,-0.13 0.89,-0.34 1.4,-0.62l0.79 1.81c-0.44,0.36 -1.01,0.66 -1.73,0.9 -0.71,0.24 -1.51,0.36 -2.39,0.36zm-0.26 -8.99c-0.54,0 -0.96,0.21 -1.28,0.62 -0.31,0.41 -0.51,0.96 -0.58,1.63l0.03 0.05 3.59 0 0 -0.26c0,-0.62 -0.15,-1.12 -0.44,-1.49 -0.29,-0.37 -0.73,-0.55 -1.32,-0.55z"/>
   <path id="5" class="fil0" d="M92.81 24.92l-1.07 -0.03c-0.44,0 -0.8,0.09 -1.08,0.27 -0.28,0.18 -0.49,0.44 -0.64,0.76l0 7.32 -2.91 0 0 -10.83 2.71 0 0.13 1.6c0.26,-0.57 0.59,-1.01 0.99,-1.33 0.4,-0.32 0.87,-0.48 1.4,-0.48 0.14,0 0.28,0.01 0.4,0.04 0.13,0.02 0.25,0.05 0.38,0.08l-0.31 2.6z"/>
   <path id="6" class="fil1" d="M98.84 31.19c0.53,0 0.94,-0.15 1.25,-0.45 0.32,-0.3 0.48,-0.7 0.48,-1.21l2.65 0 0.03 0.06c0.03,1.1 -0.38,2.01 -1.24,2.75 -0.85,0.74 -1.91,1.11 -3.17,1.11 -1.61,0 -2.86,-0.51 -3.74,-1.53 -0.87,-1.03 -1.31,-2.34 -1.31,-3.94l0 -0.3c0,-1.6 0.44,-2.91 1.31,-3.93 0.87,-1.03 2.12,-1.55 3.73,-1.55 1.34,0 2.42,0.38 3.23,1.15 0.82,0.76 1.22,1.76 1.19,3l-0.02 0.06 -2.66 0c0,-0.56 -0.16,-1.02 -0.47,-1.4 -0.3,-0.37 -0.72,-0.55 -1.27,-0.55 -0.77,0 -1.32,0.3 -1.64,0.9 -0.31,0.6 -0.47,1.37 -0.47,2.32l0 0.3c0,0.96 0.16,1.74 0.47,2.33 0.32,0.59 0.87,0.88 1.65,0.88z"/>
   <path id="7" class="fil1" d="M110.61 24.92l-1.07 -0.03c-0.43,0 -0.79,0.09 -1.07,0.27 -0.28,0.18 -0.49,0.44 -0.64,0.76l0 7.32 -2.92 0 0 -10.83 2.72 0 0.13 1.6c0.25,-0.57 0.58,-1.01 0.99,-1.33 0.4,-0.32 0.87,-0.48 1.39,-0.48 0.15,0 0.29,0.01 0.41,0.04 0.12,0.02 0.25,0.05 0.38,0.08l-0.32 2.6z"/>
   <path id="8" class="fil1" d="M116.9 33.45c-1.56,0 -2.81,-0.5 -3.75,-1.5 -0.93,-1 -1.4,-2.28 -1.4,-3.82l0 -0.4c0,-1.61 0.44,-2.93 1.33,-3.97 0.88,-1.05 2.07,-1.56 3.56,-1.56 1.46,0 2.6,0.44 3.4,1.32 0.82,0.89 1.22,2.08 1.22,3.58l0 1.59 -6.48 0 -0.02 0.06c0.06,0.71 0.3,1.3 0.72,1.75 0.43,0.46 1,0.69 1.73,0.69 0.65,0 1.19,-0.06 1.61,-0.19 0.43,-0.13 0.9,-0.34 1.41,-0.62l0.79 1.81c-0.44,0.36 -1.02,0.66 -1.73,0.9 -0.72,0.24 -1.52,0.36 -2.39,0.36zm-0.26 -8.99c-0.54,0 -0.97,0.21 -1.28,0.62 -0.32,0.41 -0.51,0.96 -0.59,1.63l0.03 0.05 3.59 0 0 -0.26c0,-0.62 -0.14,-1.12 -0.43,-1.49 -0.29,-0.37 -0.73,-0.55 -1.32,-0.55z"/>
   <path id="9" class="fil1" d="M127.76 33.45c-1.56,0 -2.81,-0.5 -3.74,-1.5 -0.94,-1 -1.41,-2.28 -1.41,-3.82l0 -0.4c0,-1.61 0.44,-2.93 1.33,-3.97 0.89,-1.05 2.07,-1.56 3.56,-1.56 1.46,0 2.6,0.44 3.41,1.32 0.81,0.89 1.21,2.08 1.21,3.58l0 1.59 -6.47 0 -0.02 0.06c0.05,0.71 0.29,1.3 0.71,1.75 0.43,0.46 1,0.69 1.73,0.69 0.65,0 1.19,-0.06 1.62,-0.19 0.42,-0.13 0.89,-0.34 1.4,-0.62l0.79 1.81c-0.44,0.36 -1.02,0.66 -1.73,0.9 -0.72,0.24 -1.51,0.36 -2.39,0.36zm-0.26 -8.99c-0.54,0 -0.97,0.21 -1.28,0.62 -0.31,0.41 -0.51,0.96 -0.58,1.63l0.03 0.05 3.59 0 0 -0.26c0,-0.62 -0.15,-1.12 -0.44,-1.49 -0.29,-0.37 -0.73,-0.55 -1.32,-0.55z"/>
   <path id="10" class="fil1" d="M133.37 27.91c0,-1.71 0.37,-3.09 1.11,-4.13 0.74,-1.05 1.78,-1.58 3.12,-1.58 0.6,0 1.13,0.14 1.59,0.4 0.45,0.27 0.84,0.65 1.17,1.14l0.27 -1.33 2.48 0 0 15 -2.92 0 0 -5.18c-0.32,0.4 -0.7,0.7 -1.13,0.91 -0.43,0.21 -0.92,0.31 -1.48,0.31 -1.33,0 -2.36,-0.49 -3.1,-1.46 -0.74,-0.98 -1.11,-2.27 -1.11,-3.87l0 -0.21zm2.92 0.21c0,0.94 0.16,1.69 0.48,2.24 0.32,0.55 0.84,0.83 1.57,0.83 0.42,0 0.79,-0.08 1.1,-0.24 0.31,-0.16 0.56,-0.39 0.75,-0.7l0 -4.79c-0.19,-0.32 -0.44,-0.57 -0.75,-0.74 -0.3,-0.17 -0.67,-0.26 -1.09,-0.26 -0.71,0 -1.23,0.32 -1.56,0.96 -0.33,0.64 -0.5,1.47 -0.5,2.48l0 0.22z"/>
   <g>
    <path class="fil2" d="M17.22 10.81c-3.65,-2.2 -4.45,-5.72 -4.14,-10.81 0.9,2.89 3.57,4.71 8.79,7.45 2.68,1.33 4.1,5.9 2.91,11.09 -1.76,-3.97 -4.33,-6.46 -7.56,-7.73z"/>
    <path class="fil3" d="M14.56 18.84c-7.41,-1.36 -9.05,-6.05 -8.68,-11.69 2.55,3.13 5.65,4.55 12.34,5.91 5.08,1.25 6.58,7.16 7.03,12.58 -2.57,-3.41 -5.91,-5.93 -10.69,-6.8z"/>
    <path class="fil2" d="M12.12 28.71c7.35,0.38 11.89,3.49 15.59,7 0.02,-7.49 -3.69,-12.11 -11.57,-13.51 -7.22,-1.05 -11.36,-1.43 -16.14,-5.67 0.95,7.58 4.74,11.93 12.12,12.18z"/>
   </g>
  </g>
 </g>
</svg>
