<?xml version="1.0" encoding="UTF-8"?>
<!DOCTYPE svg PUBLIC "-//W3C//DTD SVG 1.1//EN" "http://www.w3.org/Graphics/SVG/1.1/DTD/svg11.dtd">
<!-- Creator: CorelDRAW 2018 (64 Bit Versão de avaliação) -->
<svg xmlns="http://www.w3.org/2000/svg" xml:space="preserve" width="179px" height="47px" version="1.1" style="shape-rendering:geometricPrecision; text-rendering:geometricPrecision; image-rendering:optimizeQuality; fill-rule:evenodd; clip-rule:evenodd"
viewBox="0 0 141.02 36.86"
 xmlns:xlink="http://www.w3.org/1999/xlink">
 <defs>
  <style type="text/css">
   <![CDATA[
    .fil3 {fill:#FEFEFE}
    .fil2 {fill:#00AFEF}
    .fil0 {fill:#FEFEFE;fill-rule:nonzero}
    .fil1 {fill:#00AFEF;fill-rule:nonzero}
   ]]>
  </style>
 </defs>
 <g id="Camada_x0020_1">
  <metadata id="CorelCorpID_0Corel-Layer"/>
  <g id="_1458675757504">
   <polygon class="fil0" points="33.13,18.38 36.8,28.98 36.86,28.98 40.55,18.38 44.32,18.38 44.32,32.76 41.44,32.76 41.44,28.47 41.72,22.12 41.65,22.11 37.8,32.76 35.87,32.76 32.04,22.15 31.98,22.16 32.26,28.47 32.26,32.76 29.37,32.76 29.37,18.38 "/>
   <path id="1" class="fil0" d="M53.05 32.76c-0.11,-0.25 -0.2,-0.5 -0.27,-0.78 -0.08,-0.26 -0.13,-0.54 -0.17,-0.82 -0.29,0.52 -0.68,0.95 -1.17,1.29 -0.48,0.34 -1.06,0.51 -1.73,0.51 -1.12,0 -1.98,-0.29 -2.59,-0.86 -0.6,-0.58 -0.91,-1.37 -0.91,-2.36 0,-1.04 0.41,-1.85 1.21,-2.43 0.81,-0.58 1.99,-0.86 3.53,-0.86l1.61 0 0 -0.85c0,-0.51 -0.13,-0.91 -0.4,-1.19 -0.27,-0.29 -0.67,-0.43 -1.2,-0.43 -0.46,0 -0.82,0.12 -1.08,0.34 -0.25,0.23 -0.38,0.54 -0.38,0.94l-2.78 -0.01 -0.01 -0.06c-0.05,-0.9 0.34,-1.67 1.17,-2.33 0.83,-0.66 1.92,-0.98 3.27,-0.98 1.28,0 2.31,0.32 3.11,0.97 0.8,0.65 1.2,1.57 1.2,2.77l0 4.41c0,0.5 0.04,0.97 0.11,1.41 0.08,0.44 0.2,0.88 0.36,1.32l-2.88 0zm-2.64 -1.92c0.51,0 0.96,-0.13 1.36,-0.38 0.39,-0.25 0.66,-0.54 0.79,-0.87l0 -1.5 -1.61 0c-0.61,0 -1.07,0.15 -1.39,0.45 -0.31,0.31 -0.47,0.68 -0.47,1.11 0,0.36 0.12,0.64 0.35,0.86 0.24,0.22 0.56,0.33 0.97,0.33z"/>
   <path id="2" class="fil0" d="M63.42 29.81c0,-0.32 -0.16,-0.59 -0.46,-0.81 -0.31,-0.23 -0.87,-0.44 -1.71,-0.61 -1.26,-0.26 -2.21,-0.64 -2.86,-1.15 -0.64,-0.5 -0.96,-1.19 -0.96,-2.06 0,-0.92 0.39,-1.7 1.16,-2.34 0.78,-0.64 1.81,-0.96 3.11,-0.96 1.36,0 2.44,0.32 3.25,0.95 0.81,0.64 1.2,1.45 1.16,2.42l-0.02 0.06 -2.78 0c0,-0.43 -0.14,-0.78 -0.41,-1.05 -0.28,-0.27 -0.67,-0.4 -1.2,-0.4 -0.47,0 -0.83,0.11 -1.1,0.34 -0.27,0.23 -0.4,0.51 -0.4,0.85 0,0.33 0.14,0.6 0.42,0.81 0.28,0.21 0.84,0.4 1.7,0.57 1.32,0.26 2.3,0.64 2.93,1.16 0.64,0.51 0.96,1.21 0.96,2.1 0,0.96 -0.41,1.75 -1.23,2.36 -0.83,0.61 -1.91,0.91 -3.26,0.91 -1.42,0 -2.55,-0.36 -3.37,-1.08 -0.83,-0.72 -1.22,-1.54 -1.18,-2.46l0.01 -0.06 2.64 0c0.02,0.57 0.21,0.98 0.57,1.23 0.35,0.26 0.82,0.39 1.39,0.39 0.53,0 0.94,-0.11 1.21,-0.32 0.28,-0.21 0.43,-0.49 0.43,-0.85z"/>
   <path id="3" class="fil0" d="M71.49 19.46l0 2.62 1.8 0 0 2.02 -1.8 0 0 5.44c0,0.41 0.09,0.71 0.26,0.89 0.17,0.18 0.4,0.26 0.69,0.26 0.15,0 0.28,0 0.39,-0.02 0.11,-0.02 0.24,-0.05 0.38,-0.08l0.25 2.07c-0.29,0.1 -0.57,0.18 -0.85,0.22 -0.28,0.06 -0.58,0.08 -0.9,0.08 -0.99,0 -1.76,-0.27 -2.29,-0.82 -0.54,-0.55 -0.81,-1.41 -0.81,-2.6l0 -5.44 -1.56 0 0 -2.02 1.56 0 0 -2.62 2.88 0z"/>
   <path id="4" class="fil0" d="M79.86 32.96c-1.54,0 -2.77,-0.49 -3.69,-1.48 -0.93,-0.99 -1.39,-2.24 -1.39,-3.76l0 -0.4c0,-1.58 0.44,-2.89 1.31,-3.91 0.87,-1.03 2.04,-1.54 3.51,-1.53 1.44,0 2.56,0.43 3.36,1.3 0.8,0.87 1.19,2.04 1.19,3.52l0 1.57 -6.38 0 -0.02 0.06c0.06,0.7 0.29,1.28 0.71,1.73 0.42,0.45 0.98,0.67 1.7,0.67 0.64,0 1.17,-0.06 1.59,-0.19 0.42,-0.13 0.89,-0.33 1.39,-0.6l0.78 1.78c-0.44,0.36 -1.01,0.65 -1.71,0.89 -0.71,0.23 -1.49,0.35 -2.35,0.35zm-0.26 -8.86c-0.53,0 -0.95,0.2 -1.26,0.61 -0.31,0.41 -0.5,0.95 -0.58,1.61l0.03 0.05 3.54 0 0 -0.26c0,-0.61 -0.15,-1.1 -0.43,-1.46 -0.29,-0.37 -0.72,-0.55 -1.3,-0.55z"/>
   <path id="5" class="fil0" d="M91.45 24.56l-1.06 -0.03c-0.42,0 -0.78,0.08 -1.05,0.26 -0.28,0.18 -0.49,0.43 -0.63,0.75l0 7.22 -2.88 0 0 -10.68 2.68 0 0.13 1.58c0.24,-0.56 0.57,-1 0.97,-1.31 0.4,-0.31 0.86,-0.47 1.37,-0.47 0.15,0 0.28,0.01 0.41,0.03 0.12,0.02 0.24,0.05 0.37,0.09l-0.31 2.56z"/>
   <path id="6" class="fil1" d="M97.39 30.73c0.52,0 0.93,-0.14 1.24,-0.44 0.31,-0.3 0.46,-0.69 0.46,-1.19l2.62 0 0.03 0.06c0.03,1.08 -0.38,1.98 -1.22,2.71 -0.84,0.72 -1.88,1.09 -3.13,1.09 -1.59,0 -2.82,-0.5 -3.68,-1.51 -0.86,-1.01 -1.29,-2.3 -1.29,-3.88l0 -0.29c0,-1.58 0.43,-2.87 1.29,-3.88 0.86,-1.02 2.08,-1.52 3.67,-1.52 1.32,0 2.38,0.37 3.19,1.12 0.8,0.75 1.2,1.74 1.17,2.97l-0.02 0.05 -2.63 0c0,-0.55 -0.15,-1 -0.45,-1.37 -0.3,-0.37 -0.72,-0.55 -1.26,-0.55 -0.76,0 -1.3,0.3 -1.61,0.89 -0.31,0.59 -0.47,1.35 -0.47,2.28l0 0.3c0,0.95 0.16,1.71 0.47,2.3 0.31,0.57 0.86,0.86 1.62,0.86z"/>
   <path id="7" class="fil1" d="M109 24.56l-1.06 -0.03c-0.43,0 -0.78,0.08 -1.06,0.26 -0.27,0.18 -0.48,0.43 -0.63,0.75l0 7.22 -2.87 0 0 -10.68 2.67 0 0.13 1.58c0.25,-0.56 0.58,-1 0.97,-1.31 0.4,-0.31 0.86,-0.47 1.38,-0.47 0.14,0 0.28,0.01 0.4,0.03 0.12,0.02 0.25,0.05 0.37,0.09l-0.3 2.56z"/>
   <path id="8" class="fil1" d="M115.19 32.96c-1.54,0 -2.77,-0.49 -3.69,-1.48 -0.93,-0.99 -1.39,-2.24 -1.39,-3.76l0 -0.4c0,-1.58 0.44,-2.89 1.31,-3.91 0.87,-1.03 2.04,-1.54 3.51,-1.53 1.44,0 2.56,0.43 3.36,1.3 0.8,0.87 1.19,2.04 1.19,3.52l0 1.57 -6.38 0 -0.02 0.06c0.06,0.7 0.29,1.28 0.71,1.73 0.42,0.45 0.98,0.67 1.7,0.67 0.64,0 1.17,-0.06 1.59,-0.19 0.42,-0.13 0.89,-0.33 1.39,-0.6l0.78 1.78c-0.44,0.36 -1.01,0.65 -1.71,0.89 -0.71,0.23 -1.49,0.35 -2.35,0.35zm-0.26 -8.86c-0.53,0 -0.95,0.2 -1.26,0.61 -0.31,0.41 -0.5,0.95 -0.58,1.61l0.03 0.05 3.54 0 0 -0.26c0,-0.61 -0.15,-1.1 -0.43,-1.46 -0.29,-0.37 -0.72,-0.55 -1.3,-0.55z"/>
   <path id="9" class="fil1" d="M125.89 32.96c-1.54,0 -2.77,-0.49 -3.69,-1.48 -0.92,-0.99 -1.38,-2.24 -1.38,-3.76l0 -0.4c0,-1.58 0.43,-2.89 1.31,-3.91 0.87,-1.03 2.04,-1.54 3.5,-1.53 1.45,0 2.57,0.43 3.36,1.3 0.8,0.87 1.2,2.04 1.2,3.52l0 1.57 -6.38 0 -0.02 0.06c0.05,0.7 0.29,1.28 0.7,1.73 0.42,0.45 0.99,0.67 1.71,0.67 0.64,0 1.17,-0.06 1.59,-0.19 0.42,-0.13 0.88,-0.33 1.38,-0.6l0.78 1.78c-0.43,0.36 -1,0.65 -1.71,0.89 -0.7,0.23 -1.49,0.35 -2.35,0.35zm-0.26 -8.86c-0.53,0 -0.95,0.2 -1.26,0.61 -0.31,0.41 -0.5,0.95 -0.57,1.61l0.03 0.05 3.53 0 0 -0.26c0,-0.61 -0.14,-1.1 -0.43,-1.46 -0.28,-0.37 -0.72,-0.55 -1.3,-0.55z"/>
   <path id="10" class="fil1" d="M131.42 27.5c0,-1.68 0.36,-3.04 1.09,-4.07 0.73,-1.04 1.75,-1.55 3.08,-1.55 0.59,0 1.11,0.13 1.56,0.39 0.44,0.26 0.83,0.64 1.15,1.12l0.27 -1.31 2.45 0 0 14.78 -2.88 0 0 -5.1c-0.32,0.39 -0.69,0.69 -1.11,0.89 -0.43,0.21 -0.91,0.31 -1.46,0.31 -1.31,0 -2.33,-0.48 -3.06,-1.44 -0.73,-0.96 -1.09,-2.23 -1.09,-3.81l0 -0.21zm2.88 0.2c0,0.93 0.15,1.67 0.47,2.22 0.31,0.54 0.83,0.81 1.54,0.81 0.42,0 0.78,-0.07 1.09,-0.23 0.3,-0.16 0.55,-0.39 0.74,-0.69l0 -4.72c-0.19,-0.32 -0.44,-0.56 -0.74,-0.73 -0.3,-0.17 -0.66,-0.26 -1.07,-0.26 -0.71,0 -1.22,0.32 -1.55,0.95 -0.32,0.63 -0.48,1.44 -0.48,2.45l0 0.2z"/>
   <g>
    <path class="fil2" d="M16.97 10.65c-3.6,-2.16 -4.39,-5.64 -4.08,-10.65 0.89,2.85 3.52,4.64 8.66,7.34 2.64,1.31 4.04,5.82 2.87,10.93 -1.74,-3.92 -4.27,-6.37 -7.45,-7.62z"/>
    <path class="fil3" d="M14.35 18.56c-7.31,-1.33 -8.92,-5.96 -8.56,-11.52 2.52,3.09 5.57,4.49 12.16,5.83 5.01,1.23 6.49,7.05 6.93,12.39 -2.53,-3.36 -5.83,-5.84 -10.53,-6.7z"/>
    <path class="fil2" d="M11.94 28.29c7.24,0.37 11.72,3.44 15.37,6.89 0.01,-7.38 -3.64,-11.93 -11.41,-13.31 -7.12,-1.03 -11.19,-1.41 -15.9,-5.58 0.94,7.47 4.67,11.76 11.94,12z"/>
   </g>
  </g>
 </g>
</svg>
