<?xml version="1.0" encoding="UTF-8"?>
<!DOCTYPE svg PUBLIC "-//W3C//DTD SVG 1.1//EN" "http://www.w3.org/Graphics/SVG/1.1/DTD/svg11.dtd">
<!-- Creator: CorelDRAW 2018 (64 Bit Versão de avaliação) -->
<svg xmlns="http://www.w3.org/2000/svg" xml:space="preserve" width="2185px" height="571px" version="1.1" style="shape-rendering:geometricPrecision; text-rendering:geometricPrecision; image-rendering:optimizeQuality; fill-rule:evenodd; clip-rule:evenodd"
viewBox="0 0 1721.37 449.96"
 xmlns:xlink="http://www.w3.org/1999/xlink">
 <defs>
  <style type="text/css">
   <![CDATA[
    .fil1 {fill:#FEFEFE}
    .fil0 {fill:#FEFEFE;fill-rule:nonzero}
   ]]>
  </style>
 </defs>
 <g id="Camada_x0020_1">
  <metadata id="CorelCorpID_0Corel-Layer"/>
  <g id="_2636985870704">
   <polygon class="fil0" points="404.47,224.35 449.19,353.69 449.89,353.69 494.97,224.35 541.01,224.35 541.01,399.85 505.83,399.85 505.83,347.52 509.21,270.02 508.47,269.89 461.44,399.85 437.83,399.85 391.1,270.39 390.36,270.51 393.73,347.52 393.73,399.85 358.51,399.85 358.51,224.35 "/>
   <path id="1" class="fil0" d="M647.56 399.85c-1.32,-2.96 -2.43,-6.09 -3.33,-9.42 -0.95,-3.29 -1.61,-6.66 -1.98,-10.12 -3.62,6.38 -8.39,11.6 -14.31,15.76 -5.89,4.15 -12.96,6.25 -21.15,6.25 -13.66,0 -24.19,-3.5 -31.55,-10.53 -7.41,-7.04 -11.11,-16.62 -11.11,-28.72 0,-12.79 4.94,-22.66 14.77,-29.7 9.83,-7.03 24.19,-10.53 43.07,-10.53l19.66 0 0 -10.37c0,-6.25 -1.64,-11.11 -4.93,-14.56 -3.29,-3.46 -8.15,-5.18 -14.61,-5.18 -5.67,0 -10.08,1.39 -13.16,4.15 -3.13,2.76 -4.65,6.58 -4.65,11.52l-33.98 -0.12 -0.12 -0.74c-0.58,-10.99 4.19,-20.49 14.31,-28.51 10.12,-7.98 23.45,-11.98 39.91,-11.98 15.59,0 28.22,3.95 37.97,11.89 9.71,7.9 14.56,19.17 14.56,33.78l0 53.85c0,6.13 0.5,11.89 1.4,17.24 0.95,5.39 2.39,10.74 4.4,16.04l-35.17 0zm-32.21 -23.45c6.21,0 11.68,-1.52 16.54,-4.56 4.81,-3.05 8.06,-6.59 9.74,-10.62l0 -18.39 -19.66 0c-7.45,0 -13.12,1.85 -16.99,5.6 -3.83,3.74 -5.76,8.23 -5.76,13.53 0,4.32 1.44,7.82 4.32,10.45 2.92,2.68 6.83,3.99 11.81,3.99z"/>
   <path id="2" class="fil0" d="M774.1 363.86c0,-3.83 -1.85,-7.12 -5.59,-9.92 -3.75,-2.8 -10.66,-5.31 -20.82,-7.45 -15.42,-3.16 -27.03,-7.77 -34.88,-13.94 -7.82,-6.13 -11.73,-14.52 -11.73,-25.14 0,-11.23 4.69,-20.77 14.15,-28.59 9.42,-7.86 22.1,-11.77 37.89,-11.77 16.66,0 29.87,3.91 39.74,11.69 9.84,7.77 14.57,17.61 14.15,29.5l-0.24 0.74 -33.98 0c0,-5.23 -1.69,-9.51 -5.02,-12.8 -3.33,-3.29 -8.19,-4.94 -14.65,-4.94 -5.68,0 -10.16,1.4 -13.41,4.16 -3.29,2.76 -4.89,6.25 -4.89,10.41 0,4.03 1.68,7.32 5.1,9.91 3.41,2.55 10.36,4.86 20.81,6.87 16.05,3.21 28.02,7.9 35.79,14.15 7.78,6.22 11.69,14.77 11.69,25.72 0,11.72 -5.02,21.31 -15.06,28.71 -10.04,7.45 -23.28,11.15 -39.78,11.15 -17.36,0 -31.06,-4.4 -41.14,-13.2 -10.08,-8.77 -14.89,-18.81 -14.4,-30.04l0.21 -0.74 32.21 0c0.2,6.95 2.51,12.01 6.87,15.1 4.32,3.13 10,4.69 16.99,4.69 6.5,0 11.44,-1.27 14.85,-3.83 3.42,-2.55 5.14,-6.04 5.14,-10.44z"/>
   <path id="3" class="fil0" d="M872.71 237.6l0 31.92 21.93 0 0 24.69 -21.93 0 0 66.35c0,5.06 1.03,8.68 3.13,10.87 2.1,2.18 4.9,3.25 8.43,3.25 1.86,0 3.46,-0.09 4.78,-0.29 1.31,-0.21 2.88,-0.58 4.6,-1.03l3.05 25.34c-3.54,1.23 -6.99,2.14 -10.37,2.72 -3.37,0.61 -7.03,0.9 -10.98,0.9 -12.14,0 -21.48,-3.33 -28.02,-10 -6.54,-6.66 -9.83,-17.19 -9.83,-31.67l0 -66.44 -19.05 0 0 -24.69 19.05 0 0 -31.92 35.21 0z"/>
   <path id="4" class="fil0" d="M974.78 402.32c-18.8,0 -33.82,-6.01 -45.05,-18.06 -11.27,-12.05 -16.86,-27.36 -16.86,-45.91l0 -4.81c0,-19.34 5.3,-35.3 15.96,-47.81 10.65,-12.55 24.93,-18.76 42.82,-18.68 17.61,0 31.27,5.31 40.98,15.88 9.75,10.62 14.6,24.94 14.6,43l0 19.13 -77.87 0 -0.25 0.73c0.66,8.56 3.54,15.6 8.64,21.11 5.1,5.51 12.01,8.27 20.77,8.27 7.82,0 14.28,-0.78 19.42,-2.35 5.14,-1.56 10.78,-4.03 16.87,-7.4l9.54 21.76c-5.3,4.36 -12.26,7.98 -20.85,10.82 -8.6,2.88 -18.19,4.32 -28.72,4.32zm-3.13 -108.11c-6.5,0 -11.64,2.46 -15.42,7.44 -3.75,4.98 -6.09,11.52 -7,19.58l0.37 0.62 43.16 0 0 -3.12c0,-7.45 -1.77,-13.42 -5.23,-17.86 -3.49,-4.44 -8.8,-6.66 -15.88,-6.66z"/>
   <path id="5" class="fil0" d="M1116.3 299.76l-12.88 -0.37c-5.22,0 -9.54,1.07 -12.92,3.25 -3.37,2.18 -5.92,5.23 -7.69,9.17l0 88.04 -35.09 0 0 -130.33 32.66 0 1.57 19.3c3.04,-6.83 7.03,-12.18 11.89,-16.01 4.85,-3.82 10.45,-5.76 16.78,-5.76 1.77,0 3.42,0.13 4.9,0.42 1.48,0.28 3,0.61 4.52,1.02l-3.74 31.27z"/>
   <path id="6" class="fil0" d="M1188.87 375.17c6.29,0 11.31,-1.81 15.06,-5.43 3.78,-3.62 5.67,-8.48 5.67,-14.57l31.97 0 0.33 0.75c0.33,13.16 -4.61,24.19 -14.89,33.07 -10.25,8.89 -22.96,13.33 -38.14,13.33 -19.42,0 -34.43,-6.13 -44.97,-18.43 -10.49,-12.3 -15.75,-28.06 -15.75,-47.35l0 -3.58c0,-19.21 5.22,-35.01 15.71,-47.35 10.49,-12.38 25.47,-18.56 44.88,-18.56 16.09,0 29.05,4.57 38.88,13.75 9.83,9.17 14.61,21.22 14.28,36.16l-0.25 0.7 -32.05 0c0,-6.71 -1.85,-12.3 -5.55,-16.79 -3.66,-4.44 -8.76,-6.66 -15.31,-6.66 -9.29,0 -15.87,3.62 -19.7,10.82 -3.78,7.2 -5.72,16.49 -5.72,27.85l0 3.62c0,11.6 1.94,20.94 5.72,28.06 3.83,7.07 10.45,10.61 19.83,10.61z"/>
   <path id="7" class="fil0" d="M1330.47 299.76l-12.88 -0.37c-5.22,0 -9.54,1.07 -12.91,3.25 -3.38,2.18 -5.93,5.23 -7.7,9.17l0 88.04 -35.09 0 0 -130.33 32.66 0 1.57 19.3c3.04,-6.83 7.03,-12.18 11.89,-16.01 4.85,-3.82 10.45,-5.76 16.78,-5.76 1.77,0 3.42,0.13 4.9,0.42 1.48,0.28 3,0.61 4.52,1.02l-3.74 31.27z"/>
   <path id="8" class="fil0" d="M1406.04 402.32c-18.8,0 -33.81,-6.01 -45.04,-18.06 -11.28,-12.05 -16.87,-27.36 -16.87,-45.91l0 -4.81c0,-19.34 5.31,-35.3 15.96,-47.81 10.66,-12.55 24.93,-18.76 42.83,-18.68 17.6,0 31.26,5.31 40.97,15.88 9.75,10.62 14.61,24.94 14.61,43l0 19.13 -77.88 0 -0.25 0.73c0.66,8.56 3.54,15.6 8.64,21.11 5.1,5.51 12.01,8.27 20.78,8.27 7.81,0 14.27,-0.78 19.41,-2.35 5.15,-1.56 10.78,-4.03 16.87,-7.4l9.55 21.76c-5.31,4.36 -12.26,7.98 -20.86,10.82 -8.6,2.88 -18.19,4.32 -28.72,4.32zm-3.12 -108.11c-6.5,0 -11.65,2.46 -15.43,7.44 -3.74,4.98 -6.09,11.52 -6.99,19.58l0.37 0.62 43.15 0 0 -3.12c0,-7.45 -1.77,-13.42 -5.22,-17.86 -3.5,-4.44 -8.81,-6.66 -15.88,-6.66z"/>
   <path id="9" class="fil0" d="M1536.7 402.32c-18.8,0 -33.82,-6.01 -45.05,-18.06 -11.27,-12.05 -16.86,-27.36 -16.86,-45.91l0 -4.81c0,-19.34 5.3,-35.3 15.96,-47.81 10.65,-12.55 24.93,-18.76 42.82,-18.68 17.61,0 31.27,5.31 40.98,15.88 9.75,10.62 14.6,24.94 14.6,43l0 19.13 -77.87 0 -0.25 0.73c0.66,8.56 3.54,15.6 8.64,21.11 5.1,5.51 12.01,8.27 20.77,8.27 7.82,0 14.28,-0.78 19.42,-2.35 5.14,-1.56 10.78,-4.03 16.87,-7.4l9.54 21.76c-5.3,4.36 -12.26,7.98 -20.85,10.82 -8.6,2.88 -18.19,4.32 -28.72,4.32zm-3.13 -108.11c-6.5,0 -11.64,2.46 -15.42,7.44 -3.75,4.98 -6.09,11.52 -7,19.58l0.37 0.62 43.16 0 0 -3.12c0,-7.45 -1.77,-13.42 -5.23,-17.86 -3.49,-4.44 -8.8,-6.66 -15.88,-6.66z"/>
   <path id="10" class="fil0" d="M1604.21 335.72c0,-20.57 4.44,-37.15 13.33,-49.74 8.89,-12.63 21.39,-18.93 37.56,-18.93 7.2,0 13.58,1.61 19.05,4.78 5.43,3.21 10.16,7.77 14.07,13.74l3.25 -16.05 29.9 0 0 180.44 -35.17 0 0 -62.33c-3.87,4.82 -8.39,8.48 -13.58,10.95 -5.18,2.51 -11.1,3.74 -17.77,3.74 -16,0 -28.42,-5.84 -37.31,-17.57 -8.89,-11.72 -13.33,-27.23 -13.33,-46.52l0 -2.51zm35.09 2.46c0,11.36 1.93,20.37 5.8,27.03 3.83,6.63 10.12,9.96 18.8,9.96 5.14,0 9.55,-0.95 13.25,-2.88 3.7,-1.94 6.71,-4.73 9.05,-8.43l0 -57.64c-2.34,-3.83 -5.35,-6.79 -9.01,-8.89 -3.66,-2.09 -8.02,-3.12 -13.08,-3.12 -8.6,0 -14.85,3.82 -18.84,11.52 -3.99,7.69 -5.97,17.69 -5.97,29.9l0 2.55z"/>
   <g>
    <path class="fil1" d="M207.14 130c-43.95,-26.41 -53.52,-68.8 -49.77,-130 10.83,34.79 42.94,56.66 105.69,89.6 32.19,16.02 49.34,71.02 35.04,133.39 -21.22,-47.79 -52.13,-77.71 -90.96,-92.99z"/>
    <path class="fil1" d="M175.12 226.55c-89.17,-16.27 -108.83,-72.77 -104.43,-140.57 30.72,37.68 67.96,54.73 148.43,71.11 61.12,15.01 79.16,86.11 84.57,151.27 -30.93,-40.99 -71.11,-71.33 -128.57,-81.81z"/>
    <path class="fil1" d="M145.78 345.38c88.35,4.52 143.01,41.88 187.56,84.09 0.2,-90.1 -44.4,-145.66 -139.21,-162.47 -86.9,-12.58 -136.69,-17.2 -194.13,-68.2 11.43,91.24 57,143.55 145.78,146.58z"/>
   </g>
  </g>
 </g>
</svg>
