<?xml version="1.0" standalone="no"?>
<!DOCTYPE svg PUBLIC "-//W3C//DTD SVG 20010904//EN"
 "http://www.w3.org/TR/2001/REC-SVG-20010904/DTD/svg10.dtd">
<svg version="1.0" xmlns="http://www.w3.org/2000/svg"
 width="546.000000pt" height="546.000000pt" viewBox="0 0 546.000000 546.000000"
 preserveAspectRatio="xMidYMid meet">
<metadata>
Created by potrace 1.11, written by Peter Selinger 2001-2013
</metadata>
<g transform="translate(0.000000,546.000000) scale(0.100000,-0.100000)"
fill="#000000" stroke="none">
<path d="M2608 5420 c-7 -42 -2 -487 6 -551 5 -45 20 -144 32 -204 29 -160
125 -395 201 -494 157 -205 291 -316 484 -400 135 -59 289 -154 429 -265 71
-57 266 -264 334 -355 89 -120 196 -298 256 -425 23 -48 44 -86 46 -84 5 5 30
131 38 188 23 163 29 455 13 595 -35 317 -159 610 -328 775 -62 60 -123 100
-274 179 -296 155 -688 395 -780 478 -11 10 -45 39 -75 64 -179 150 -325 352
-370 509 -6 24 -7 23 -12 -10z"/>
<path d="M1508 4319 c-6 -53 -1 -382 6 -424 3 -17 8 -50 11 -75 44 -328 167
-591 370 -794 205 -206 472 -339 838 -420 62 -14 126 -27 142 -29 257 -41 631
-189 868 -345 75 -48 209 -146 238 -172 8 -8 46 -41 83 -73 110 -97 245 -240
343 -364 31 -40 58 -71 59 -70 1 1 -2 36 -7 77 -22 204 -19 184 -39 310 -44
285 -99 496 -185 709 -143 357 -345 597 -615 732 -113 56 -151 68 -385 119
-215 47 -366 85 -534 135 -124 36 -375 126 -421 150 -14 8 -63 32 -110 55
-129 64 -295 168 -351 220 -9 8 -34 30 -57 48 -42 34 -153 145 -215 216 l-35
40 -4 -45z"/>
<path d="M615 2903 c9 -49 46 -257 51 -288 3 -16 7 -37 10 -45 3 -8 8 -26 10
-40 8 -45 64 -223 101 -320 62 -166 206 -425 280 -505 10 -11 38 -44 63 -74
101 -122 293 -269 465 -354 92 -45 286 -118 352 -132 10 -2 52 -10 93 -19 137
-28 245 -41 440 -51 118 -7 163 -10 238 -20 23 -3 63 -8 90 -11 26 -3 104 -16
173 -29 395 -74 747 -205 1072 -399 65 -39 126 -75 135 -81 127 -74 453 -333
608 -482 43 -42 47 -35 45 62 -3 126 -16 288 -26 325 -2 8 -7 31 -10 50 -110
696 -521 1191 -1198 1441 -62 22 -122 43 -134 45 -12 2 -34 9 -48 14 -13 5
-71 20 -127 34 -126 30 -242 52 -383 71 -193 26 -287 40 -335 50 -14 2 -45 7
-70 10 -25 3 -56 7 -70 9 -14 3 -59 10 -100 17 -41 7 -77 13 -80 14 -3 1 -25
5 -50 9 -25 5 -54 10 -65 12 -11 3 -33 7 -50 9 -16 3 -86 19 -155 36 -69 17
-141 34 -160 38 -19 5 -86 25 -149 46 -328 107 -613 262 -888 483 -140 113
-134 109 -128 75z"/>
</g>
</svg>
